<?xml version="1.0" encoding="UTF-8" standalone="no"?>
<!-- Created with Inkscape (http://www.inkscape.org/) -->

<svg
   xmlns:dc="http://purl.org/dc/elements/1.1/"
   xmlns:cc="http://creativecommons.org/ns#"
   xmlns:rdf="http://www.w3.org/1999/02/22-rdf-syntax-ns#"
   xmlns:svg="http://www.w3.org/2000/svg"
   xmlns="http://www.w3.org/2000/svg"
   xmlns:sodipodi="http://sodipodi.sourceforge.net/DTD/sodipodi-0.dtd"
   xmlns:inkscape="http://www.inkscape.org/namespaces/inkscape"
   width="1024"
   height="1024"
   viewBox="0 0 270.93333 270.93333"
   version="1.1"
   id="svg1154"
   inkscape:version="0.92.3 (2405546, 2018-03-11)"
   sodipodi:docname="metronome.svg">
  <defs
     id="defs1148">
    <clipPath
       id="p7ff5b81e1d">
      <rect
         height="345.60001"
         width="446.39999"
         x="72"
         y="43.200001"
         id="rect5353" />
    </clipPath>
  </defs>
  <sodipodi:namedview
     id="base"
     pagecolor="#ffffff"
     bordercolor="#666666"
     borderopacity="1.0"
     inkscape:pageopacity="0.0"
     inkscape:pageshadow="2"
     inkscape:zoom="0.24748738"
     inkscape:cx="801.11306"
     inkscape:cy="427.53053"
     inkscape:document-units="px"
     inkscape:current-layer="layer1"
     showgrid="false"
     units="px"
     inkscape:window-width="1299"
     inkscape:window-height="713"
     inkscape:window-x="67"
     inkscape:window-y="27"
     inkscape:window-maximized="1" />
  <metadata
     id="metadata1151">
    <rdf:RDF>
      <cc:Work
         rdf:about="">
        <dc:format>image/svg+xml</dc:format>
        <dc:type
           rdf:resource="http://purl.org/dc/dcmitype/StillImage" />
        <dc:title />
      </cc:Work>
    </rdf:RDF>
  </metadata>
  <g
     inkscape:label="Layer 1"
     inkscape:groupmode="layer"
     id="layer1"
     transform="translate(0,-26.06668)">
    <path
       inkscape:connector-curvature="0"
       style="fill:#000000;fill-opacity:1;stroke:none;stroke-width:21.47949219;stroke-linecap:round;stroke-linejoin:round;stroke-miterlimit:4;stroke-dasharray:none;stroke-dashoffset:0;stroke-opacity:1;paint-order:markers fill stroke"
       d="m 92.356963,44.124931 c -15.553665,0 -26.219748,12.634381 -28.076062,28.077045 L 42.800919,250.8652 c -1.855811,15.44242 12.522894,28.07656 28.076556,28.07656 H 197.30027 c 15.55391,0 29.93312,-12.63414 28.07655,-28.07656 l -16.43767,-136.72783 -6.54306,14.58296 13.10085,101.15827 c 0,13.49569 -9.25235,24.36368 -22.74805,24.36368 H 152.4851 a 18.510735,18.510735 0 0 0 -9.14546,-14.13769 18.510735,18.510735 0 0 0 -18.50104,0 18.510735,18.510735 0 0 0 -9.15626,14.13769 H 76.614435 c -13.495692,0 -22.748292,-10.86799 -22.748042,-24.36368 L 73.730247,76.501999 C 73.730498,63.006303 84.598228,52.138318 98.093926,52.138318 h 73.185794 c 13.49569,0 24.35361,10.867985 24.35336,24.363681 l 1.48948,11.501907 6.84154,-15.247674 -0.0668,-0.554256 C 202.04152,56.759312 191.37444,44.124931 175.82078,44.124931 Z"
       id="rect1017" />
    <path
       sodipodi:nodetypes="cc"
       inkscape:connector-curvature="0"
       id="path1036"
       d="M 133.68918,253.16211 223.86958,54.626411"
       style="fill:#000000;stroke:#000000;stroke-width:8.79739571;stroke-linecap:round;stroke-linejoin:miter;stroke-miterlimit:4;stroke-dasharray:none;stroke-opacity:1" />
  </g>
</svg>
