<?xml version="1.0" encoding="UTF-8" standalone="no"?>
<!-- Created with Inkscape (http://www.inkscape.org/) -->

<svg
   xmlns:dc="http://purl.org/dc/elements/1.1/"
   xmlns:cc="http://creativecommons.org/ns#"
   xmlns:rdf="http://www.w3.org/1999/02/22-rdf-syntax-ns#"
   xmlns:svg="http://www.w3.org/2000/svg"
   xmlns="http://www.w3.org/2000/svg"
   xmlns:sodipodi="http://sodipodi.sourceforge.net/DTD/sodipodi-0.dtd"
   xmlns:inkscape="http://www.inkscape.org/namespaces/inkscape"
   width="1024"
   height="1024"
   viewBox="0 0 270.93333 270.93333"
   version="1.1"
   id="svg1154"
   inkscape:version="0.92.3 (2405546, 2018-03-11)"
   sodipodi:docname="metronome.svg">
  <defs
     id="defs1148">
    <clipPath
       id="p7ff5b81e1d">
      <rect
         height="345.60001"
         width="446.39999"
         x="72"
         y="43.200001"
         id="rect5353" />
    </clipPath>
  </defs>
  <sodipodi:namedview
     id="base"
     pagecolor="#ffffff"
     bordercolor="#666666"
     borderopacity="1.0"
     inkscape:pageopacity="0.0"
     inkscape:pageshadow="2"
     inkscape:zoom="0.35000001"
     inkscape:cx="567.21693"
     inkscape:cy="352.02422"
     inkscape:document-units="px"
     inkscape:current-layer="g842"
     showgrid="false"
     units="px"
     inkscape:window-width="1299"
     inkscape:window-height="713"
     inkscape:window-x="67"
     inkscape:window-y="27"
     inkscape:window-maximized="1" />
  <metadata
     id="metadata1151">
    <rdf:RDF>
      <cc:Work
         rdf:about="">
        <dc:format>image/svg+xml</dc:format>
        <dc:type
           rdf:resource="http://purl.org/dc/dcmitype/StillImage" />
        <dc:title />
      </cc:Work>
    </rdf:RDF>
  </metadata>
  <g
     inkscape:label="Layer 1"
     inkscape:groupmode="layer"
     id="layer1"
     transform="translate(0,-26.06668)">
    <g
       transform="translate(39.571575,-36.835109)"
       id="g1419">
      <g
         id="g842"
         transform="matrix(21.497631,0,0,21.497631,-57.464143,-3201.2415)">
        <path
           sodipodi:nodetypes="scsssccssssccsccccsccs"
           style="fill:#000000;fill-opacity:1;stroke:none;stroke-width:0.8553316;stroke-linecap:round;stroke-linejoin:round;stroke-miterlimit:4;stroke-dasharray:none;stroke-dashoffset:0;stroke-opacity:1;paint-order:markers fill stroke"
           d="m 5.3101189,153.46352 c -0.6193619,0 -1.0440995,0.5031 -1.1180288,1.11804 l -0.8553317,7.11453 c -0.073929,0.61493 0.4986669,1.11803 1.1180288,1.11803 h 5.0342613 c 0.6193625,0 1.1919585,-0.5031 1.1180285,-1.11803 l -0.8553312,-7.11453 c -0.073929,-0.61494 -0.498667,-1.11804 -1.1180288,-1.11804 z m 0.3078448,0.39688 h 2.7369276 c 0.5374097,0 0.9697721,0.35498 0.9697659,0.89239 l 0.7117488,6.1076 c -7e-6,0.53741 -0.3684549,0.9015 -0.9058658,0.9015 H 7.7044626 c -0.024078,-0.23521 -0.1595243,-0.44459 -0.3641842,-0.56298 -0.2279639,-0.13152 -0.5087571,-0.13152 -0.736721,0 -0.20482,0.11829 -0.340432,0.32769 -0.3646019,0.56298 H 4.7656416 c -0.5374104,0 -0.9058723,-0.36409 -0.9058663,-0.9015 l 0.7880052,-6.1076 c 6e-6,-0.53741 0.4327728,-0.89239 0.9701832,-0.89239 z"
           id="rect1017"
           inkscape:connector-curvature="0" />
        <path
           style="fill:#ffffff;stroke:#ffffff;stroke-width:0.85533166;stroke-linecap:butt;stroke-linejoin:miter;stroke-miterlimit:4;stroke-dasharray:none;stroke-opacity:1"
           d="m 7.3836561,160.93222 3.1633989,-7.05053"
           id="path1033"
           inkscape:connector-curvature="0"
           sodipodi:nodetypes="cc" />
        <path
           sodipodi:nodetypes="cc"
           inkscape:connector-curvature="0"
           id="path1036"
           d="m 6.9559903,161.78755 3.5910647,-7.90586"
           style="fill:#000000;stroke:#000000;stroke-width:0.36922673;stroke-linecap:round;stroke-linejoin:miter;stroke-miterlimit:4;stroke-dasharray:none;stroke-opacity:1" />
      </g>
    </g>
  </g>
</svg>
