<?xml version="1.0" encoding="UTF-8" standalone="no"?>
<!-- Created with Inkscape (http://www.inkscape.org/) -->

<svg
   xmlns:dc="http://purl.org/dc/elements/1.1/"
   xmlns:cc="http://creativecommons.org/ns#"
   xmlns:rdf="http://www.w3.org/1999/02/22-rdf-syntax-ns#"
   xmlns:svg="http://www.w3.org/2000/svg"
   xmlns="http://www.w3.org/2000/svg"
   xmlns:sodipodi="http://sodipodi.sourceforge.net/DTD/sodipodi-0.dtd"
   xmlns:inkscape="http://www.inkscape.org/namespaces/inkscape"
   width="1024"
   height="1024"
   viewBox="0 0 270.93333 270.93333"
   version="1.1"
   id="svg1154"
   inkscape:version="0.92.3 (2405546, 2018-03-11)"
   sodipodi:docname="equalizer.svg">
  <defs
     id="defs1148">
    <clipPath
       id="p7ff5b81e1d">
      <rect
         height="345.60001"
         width="446.39999"
         x="72"
         y="43.200001"
         id="rect5353" />
    </clipPath>
  </defs>
  <sodipodi:namedview
     id="base"
     pagecolor="#ffffff"
     bordercolor="#666666"
     borderopacity="1.0"
     inkscape:pageopacity="0.0"
     inkscape:pageshadow="2"
     inkscape:zoom="0.175"
     inkscape:cx="606.56256"
     inkscape:cy="-31.154926"
     inkscape:document-units="px"
     inkscape:current-layer="layer1"
     showgrid="false"
     units="px"
     inkscape:window-width="1299"
     inkscape:window-height="713"
     inkscape:window-x="67"
     inkscape:window-y="27"
     inkscape:window-maximized="1" />
  <metadata
     id="metadata1151">
    <rdf:RDF>
      <cc:Work
         rdf:about="">
        <dc:format>image/svg+xml</dc:format>
        <dc:type
           rdf:resource="http://purl.org/dc/dcmitype/StillImage" />
        <dc:title />
      </cc:Work>
    </rdf:RDF>
  </metadata>
  <g
     inkscape:label="Layer 1"
     inkscape:groupmode="layer"
     id="layer1"
     transform="translate(0,-26.06668)">
    <path
       style="color:#000000;font-style:normal;font-variant:normal;font-weight:normal;font-stretch:normal;font-size:medium;line-height:normal;font-family:sans-serif;font-variant-ligatures:normal;font-variant-position:normal;font-variant-caps:normal;font-variant-numeric:normal;font-variant-alternates:normal;font-feature-settings:normal;text-indent:0;text-align:start;text-decoration:none;text-decoration-line:none;text-decoration-style:solid;text-decoration-color:#000000;letter-spacing:normal;word-spacing:normal;text-transform:none;writing-mode:lr-tb;direction:ltr;text-orientation:mixed;dominant-baseline:auto;baseline-shift:baseline;text-anchor:start;white-space:normal;shape-padding:0;clip-rule:nonzero;display:inline;overflow:visible;visibility:visible;opacity:1;isolation:auto;mix-blend-mode:normal;color-interpolation:sRGB;color-interpolation-filters:linearRGB;solid-color:#000000;solid-opacity:1;vector-effect:none;fill:#000000;fill-opacity:1;fill-rule:nonzero;stroke:none;stroke-width:31.96175575;stroke-linecap:round;stroke-linejoin:miter;stroke-miterlimit:4;stroke-dasharray:none;stroke-dashoffset:0;stroke-opacity:1;color-rendering:auto;image-rendering:auto;shape-rendering:auto;text-rendering:auto;enable-background:accumulate"
       d="M 256.0625 124.50195 A 15.982476 15.982476 0 0 0 240.32422 140.70508 L 240.32422 667.13672 L 204.64844 667.13672 A 15.982476 15.982476 0 1 0 204.64844 699.10156 L 240.32422 699.10156 L 240.32422 883.29297 A 15.982476 15.982476 0 1 0 272.28906 883.29297 L 272.28906 699.10156 L 307.96484 699.10156 A 15.982476 15.982476 0 1 0 307.96484 667.13672 L 272.28906 667.13672 L 272.28906 140.70508 A 15.982476 15.982476 0 0 0 256.0625 124.50195 z M 426.52539 124.50195 A 15.982476 15.982476 0 0 0 410.78711 140.70508 L 410.78711 539.29102 L 375.11133 539.29102 A 15.982476 15.982476 0 1 0 375.11133 571.25391 L 410.78711 571.25391 L 410.78711 883.29297 A 15.982476 15.982476 0 1 0 442.75195 883.29297 L 442.75195 571.25391 L 478.42773 571.25391 A 15.982476 15.982476 0 1 0 478.42773 539.29102 L 442.75195 539.29102 L 442.75195 140.70508 A 15.982476 15.982476 0 0 0 426.52539 124.50195 z M 596.98828 124.50195 A 15.982476 15.982476 0 0 0 581.25 140.70508 L 581.25 603.21094 L 545.57422 603.21094 A 15.982476 15.982476 0 1 0 545.57422 635.17383 L 581.25 635.17383 L 581.25 883.29297 A 15.982476 15.982476 0 1 0 613.21289 883.29297 L 613.21289 635.17383 L 648.89062 635.17383 A 15.982476 15.982476 0 1 0 648.89062 603.21094 L 613.21289 603.21094 L 613.21289 140.70508 A 15.982476 15.982476 0 0 0 596.98828 124.50195 z M 767.45117 124.50195 A 15.982476 15.982476 0 0 0 751.71289 140.70508 L 751.71289 411.44336 L 716.03516 411.44336 A 15.982476 15.982476 0 1 0 716.03516 443.40625 L 751.71289 443.40625 L 751.71289 883.29297 A 15.982476 15.982476 0 1 0 783.67578 883.29297 L 783.67578 443.40625 L 819.35352 443.40625 A 15.982476 15.982476 0 1 0 819.35352 411.44336 L 783.67578 411.44336 L 783.67578 140.70508 A 15.982476 15.982476 0 0 0 767.45117 124.50195 z "
       transform="matrix(0.26458333,0,0,0.26458333,0,26.06668)"
       id="path893" />
  </g>
</svg>
