<?xml version="1.0" encoding="UTF-8" standalone="no"?>
<!-- Created with Inkscape (http://www.inkscape.org/) -->

<svg
   xmlns:dc="http://purl.org/dc/elements/1.1/"
   xmlns:cc="http://creativecommons.org/ns#"
   xmlns:rdf="http://www.w3.org/1999/02/22-rdf-syntax-ns#"
   xmlns:svg="http://www.w3.org/2000/svg"
   xmlns="http://www.w3.org/2000/svg"
   xmlns:sodipodi="http://sodipodi.sourceforge.net/DTD/sodipodi-0.dtd"
   xmlns:inkscape="http://www.inkscape.org/namespaces/inkscape"
   width="1024"
   height="1024"
   viewBox="0 0 270.93333 270.93333"
   version="1.1"
   id="svg1154"
   inkscape:version="0.92.3 (2405546, 2018-03-11)"
   sodipodi:docname="keys.svg">
  <defs
     id="defs1148">
    <clipPath
       id="p7ff5b81e1d">
      <rect
         height="345.60001"
         width="446.39999"
         x="72"
         y="43.200001"
         id="rect5353" />
    </clipPath>
  </defs>
  <sodipodi:namedview
     id="base"
     pagecolor="#ffffff"
     bordercolor="#666666"
     borderopacity="1.0"
     inkscape:pageopacity="0.0"
     inkscape:pageshadow="2"
     inkscape:zoom="0.24748738"
     inkscape:cx="499.47042"
     inkscape:cy="572.65999"
     inkscape:document-units="px"
     inkscape:current-layer="layer1"
     showgrid="false"
     units="px"
     inkscape:window-width="1299"
     inkscape:window-height="713"
     inkscape:window-x="67"
     inkscape:window-y="27"
     inkscape:window-maximized="1" />
  <metadata
     id="metadata1151">
    <rdf:RDF>
      <cc:Work
         rdf:about="">
        <dc:format>image/svg+xml</dc:format>
        <dc:type
           rdf:resource="http://purl.org/dc/dcmitype/StillImage" />
        <dc:title />
      </cc:Work>
    </rdf:RDF>
  </metadata>
  <g
     inkscape:label="Layer 1"
     inkscape:groupmode="layer"
     id="layer1"
     transform="translate(0,-26.06668)">
    <path
       style="color:#000000;font-style:normal;font-variant:normal;font-weight:normal;font-stretch:normal;font-size:medium;line-height:normal;font-family:sans-serif;font-variant-ligatures:normal;font-variant-position:normal;font-variant-caps:normal;font-variant-numeric:normal;font-variant-alternates:normal;font-feature-settings:normal;text-indent:0;text-align:start;text-decoration:none;text-decoration-line:none;text-decoration-style:solid;text-decoration-color:#000000;letter-spacing:normal;word-spacing:normal;text-transform:none;writing-mode:lr-tb;direction:ltr;text-orientation:mixed;dominant-baseline:auto;baseline-shift:baseline;text-anchor:start;white-space:normal;shape-padding:0;clip-rule:nonzero;display:inline;overflow:visible;visibility:visible;opacity:1;isolation:auto;mix-blend-mode:normal;color-interpolation:sRGB;color-interpolation-filters:linearRGB;solid-color:#000000;solid-opacity:1;vector-effect:none;fill:#000000;fill-opacity:1;fill-rule:nonzero;stroke:none;stroke-width:81.56958008;stroke-linecap:butt;stroke-linejoin:miter;stroke-miterlimit:4;stroke-dasharray:none;stroke-dashoffset:0;stroke-opacity:1;color-rendering:auto;image-rendering:auto;shape-rendering:auto;text-rendering:auto;enable-background:accumulate"
       d="M 224.24023 74.503906 A 17.986759 17.986759 0 0 0 206.25781 95.394531 L 206.25781 928.58203 A 17.986759 17.986759 0 0 0 224.24023 949.49414 L 799.76172 949.49414 A 17.986759 17.986759 0 0 0 817.74414 928.60352 L 817.74414 95.417969 A 17.986759 17.986759 0 0 0 799.76172 74.503906 L 224.24023 74.503906 z M 242.22266 110.46875 L 321.66602 110.46875 L 321.66602 459.74219 L 350.13867 459.74219 L 350.13867 913.5293 L 242.22266 913.5293 L 242.22266 110.46875 z M 403.23633 110.46875 L 471.21484 110.46875 L 471.21484 459.74219 L 494.01758 459.74219 L 494.01758 913.5293 L 386.10156 913.5293 L 386.10156 459.74219 L 403.23633 459.74219 L 403.23633 110.46875 z M 552.78516 110.46875 L 620.75781 110.46875 L 620.75781 459.74219 L 637.89062 459.74219 L 637.89062 913.5293 L 529.98242 913.5293 L 529.98242 459.74219 L 552.78516 459.74219 L 552.78516 110.46875 z M 702.32812 110.46875 L 781.77148 110.46875 L 781.77148 913.5293 L 673.86328 913.5293 L 673.86328 459.74219 L 702.32812 459.74219 L 702.32812 110.46875 z "
       transform="matrix(0.26458333,0,0,0.26458333,0,26.06668)"
       id="path837" />
  </g>
</svg>
