<?xml version="1.0" encoding="UTF-8" standalone="no"?>
<!-- Created with Inkscape (http://www.inkscape.org/) -->

<svg
   xmlns:dc="http://purl.org/dc/elements/1.1/"
   xmlns:cc="http://creativecommons.org/ns#"
   xmlns:rdf="http://www.w3.org/1999/02/22-rdf-syntax-ns#"
   xmlns:svg="http://www.w3.org/2000/svg"
   xmlns="http://www.w3.org/2000/svg"
   xmlns:sodipodi="http://sodipodi.sourceforge.net/DTD/sodipodi-0.dtd"
   xmlns:inkscape="http://www.inkscape.org/namespaces/inkscape"
   width="1024"
   height="1024"
   viewBox="0 0 270.93333 270.93333"
   version="1.1"
   id="svg1154"
   inkscape:version="0.92.3 (2405546, 2018-03-11)"
   sodipodi:docname="keys.svg">
  <defs
     id="defs1148">
    <clipPath
       id="p7ff5b81e1d">
      <rect
         height="345.60001"
         width="446.39999"
         x="72"
         y="43.200001"
         id="rect5353" />
    </clipPath>
  </defs>
  <sodipodi:namedview
     id="base"
     pagecolor="#ffffff"
     bordercolor="#666666"
     borderopacity="1.0"
     inkscape:pageopacity="0.0"
     inkscape:pageshadow="2"
     inkscape:zoom="0.49497475"
     inkscape:cx="399.3038"
     inkscape:cy="346.11434"
     inkscape:document-units="px"
     inkscape:current-layer="layer1"
     showgrid="false"
     units="px"
     inkscape:window-width="1299"
     inkscape:window-height="713"
     inkscape:window-x="67"
     inkscape:window-y="27"
     inkscape:window-maximized="1" />
  <metadata
     id="metadata1151">
    <rdf:RDF>
      <cc:Work
         rdf:about="">
        <dc:format>image/svg+xml</dc:format>
        <dc:type
           rdf:resource="http://purl.org/dc/dcmitype/StillImage" />
        <dc:title />
      </cc:Work>
    </rdf:RDF>
  </metadata>
  <g
     inkscape:label="Layer 1"
     inkscape:groupmode="layer"
     id="layer1"
     transform="translate(0,-26.06668)">
    <path
       style="color:#000000;font-style:normal;font-variant:normal;font-weight:normal;font-stretch:normal;font-size:medium;line-height:normal;font-family:sans-serif;font-variant-ligatures:normal;font-variant-position:normal;font-variant-caps:normal;font-variant-numeric:normal;font-variant-alternates:normal;font-feature-settings:normal;text-indent:0;text-align:start;text-decoration:none;text-decoration-line:none;text-decoration-style:solid;text-decoration-color:#000000;letter-spacing:normal;word-spacing:normal;text-transform:none;writing-mode:lr-tb;direction:ltr;text-orientation:mixed;dominant-baseline:auto;baseline-shift:baseline;text-anchor:start;white-space:normal;shape-padding:0;clip-rule:nonzero;display:inline;overflow:visible;visibility:visible;opacity:1;isolation:auto;mix-blend-mode:normal;color-interpolation:sRGB;color-interpolation-filters:linearRGB;solid-color:#000000;solid-opacity:1;vector-effect:none;fill:#000000;fill-opacity:1;fill-rule:nonzero;stroke:none;stroke-width:72.10236359;stroke-linecap:butt;stroke-linejoin:miter;stroke-miterlimit:4;stroke-dasharray:none;stroke-dashoffset:0;stroke-opacity:1;color-rendering:auto;image-rendering:auto;shape-rendering:auto;text-rendering:auto;enable-background:accumulate"
       d="M 258.33008 124.26562 A 15.899162 15.899162 0 0 0 242.43555 142.73438 L 242.43555 881.23438 A 15.899162 15.899162 0 0 0 258.33008 899.73242 L 765.67188 899.73242 A 15.899162 15.899162 0 0 0 781.56445 881.27148 L 781.56445 142.76562 A 15.899162 15.899162 0 0 0 765.67188 124.26562 L 258.33008 124.26562 z M 274.23047 156.06641 L 344.12109 156.06641 L 344.12109 465.67773 L 369.26367 465.67773 L 369.26367 867.93945 L 274.23047 867.93945 L 274.23047 156.06641 z M 416.2207 156.06641 L 475.94727 156.06641 L 475.94727 465.67773 L 496.09961 465.67773 L 496.09961 867.93945 L 401.06641 867.93945 L 401.06641 465.67773 L 416.2207 465.67773 L 416.2207 156.06641 z M 548.05273 156.06641 L 607.78125 156.06641 L 607.78125 465.67773 L 622.93555 465.67773 L 622.93555 867.93945 L 527.90039 867.93945 L 527.90039 465.67773 L 548.05273 465.67773 L 548.05273 156.06641 z M 679.87891 156.06641 L 749.77148 156.06641 L 749.77148 867.93945 L 654.72852 867.93945 L 654.72852 465.67773 L 679.87891 465.67773 L 679.87891 156.06641 z "
       transform="matrix(0.26458333,0,0,0.26458333,0,26.06668)"
       id="path837-6" />
  </g>
</svg>
