<?xml version="1.0" encoding="UTF-8" standalone="no"?>
<!-- Created with Inkscape (http://www.inkscape.org/) -->

<svg
   xmlns:dc="http://purl.org/dc/elements/1.1/"
   xmlns:cc="http://creativecommons.org/ns#"
   xmlns:rdf="http://www.w3.org/1999/02/22-rdf-syntax-ns#"
   xmlns:svg="http://www.w3.org/2000/svg"
   xmlns="http://www.w3.org/2000/svg"
   xmlns:sodipodi="http://sodipodi.sourceforge.net/DTD/sodipodi-0.dtd"
   xmlns:inkscape="http://www.inkscape.org/namespaces/inkscape"
   width="1024"
   height="1024"
   viewBox="0 0 270.93333 270.93333"
   version="1.1"
   id="svg1154"
   inkscape:version="0.92.3 (2405546, 2018-03-11)"
   sodipodi:docname="metronome.svg">
  <defs
     id="defs1148">
    <clipPath
       id="p7ff5b81e1d">
      <rect
         height="345.60001"
         width="446.39999"
         x="72"
         y="43.200001"
         id="rect5353" />
    </clipPath>
  </defs>
  <sodipodi:namedview
     id="base"
     pagecolor="#ffffff"
     bordercolor="#666666"
     borderopacity="1.0"
     inkscape:pageopacity="0.0"
     inkscape:pageshadow="2"
     inkscape:zoom="0.49497476"
     inkscape:cx="779.9404"
     inkscape:cy="533.70764"
     inkscape:document-units="px"
     inkscape:current-layer="g842"
     showgrid="false"
     units="px"
     inkscape:window-width="1299"
     inkscape:window-height="713"
     inkscape:window-x="67"
     inkscape:window-y="27"
     inkscape:window-maximized="1" />
  <metadata
     id="metadata1151">
    <rdf:RDF>
      <cc:Work
         rdf:about="">
        <dc:format>image/svg+xml</dc:format>
        <dc:type
           rdf:resource="http://purl.org/dc/dcmitype/StillImage" />
        <dc:title />
      </cc:Work>
    </rdf:RDF>
  </metadata>
  <g
     inkscape:label="Layer 1"
     inkscape:groupmode="layer"
     id="layer1"
     transform="translate(0,-26.06668)">
    <g
       transform="translate(39.571575,-36.835109)"
       id="g1419">
      <g
         id="g842"
         transform="matrix(21.497631,0,0,21.497631,-57.464143,-3201.2415)">
        <path
           style="fill:#000000;fill-opacity:1;stroke:none;stroke-width:69.49645233;stroke-linecap:round;stroke-linejoin:round;stroke-miterlimit:4;stroke-dasharray:none;stroke-dashoffset:0;stroke-opacity:1;paint-order:markers fill stroke"
           d="m 363.82617,132.12695 c -50.32371,0 -84.83302,40.87737 -90.83984,90.8418 l -69.49805,578.0625 c -6.0068,49.96362 40.51808,90.8418 90.8418,90.8418 h 409.03906 c 50.32376,0 96.84673,-40.87818 90.83984,-90.8418 L 741.02539,358.6582 711.79297,423.79883 747.8418,733.13086 c -5.7e-4,43.66505 -29.93839,73.24609 -73.60352,73.24609 H 558.36914 c -1.7352,-16.95062 -10.5934,-32.24489 -24.17578,-42.19922 L 802.96484,172.38477 c 5.04073,-10.51107 -3.30887,-22.50358 -14.91601,-21.42383 -5.43563,0.48993 -10.17634,3.89325 -12.37891,8.88672 l -269.5,593.22656 c -12.70485,-1.56308 -25.7979,0.95345 -37.25,7.56055 -16.64181,9.61116 -27.66117,26.62466 -29.625,45.74218 H 319.58789 c -43.66508,0 -73.60401,-29.58104 -73.60351,-73.24609 L 310.01172,236.88281 C 313.58364,193.21776 345.17476,164.375 388.83984,164.375 H 611.2168 c 43.66502,0 78.79542,28.84276 78.79492,72.50781 l 6.07617,52.14063 28.83594,-64.29883 -0.21094,-1.75586 c -6.0068,-49.96443 -40.51809,-90.8418 -90.8418,-90.8418 z"
           id="rect1017"
           transform="matrix(0.01230756,0,0,0.01230756,0.83230417,151.83735)"
           inkscape:connector-curvature="0"
           sodipodi:nodetypes="sccssccccsccccccccsccssccccss" />
      </g>
    </g>
  </g>
</svg>
