<?xml version="1.0" encoding="UTF-8" standalone="no"?>
<!-- Created with Inkscape (http://www.inkscape.org/) -->

<svg
   xmlns:dc="http://purl.org/dc/elements/1.1/"
   xmlns:cc="http://creativecommons.org/ns#"
   xmlns:rdf="http://www.w3.org/1999/02/22-rdf-syntax-ns#"
   xmlns:svg="http://www.w3.org/2000/svg"
   xmlns="http://www.w3.org/2000/svg"
   xmlns:sodipodi="http://sodipodi.sourceforge.net/DTD/sodipodi-0.dtd"
   xmlns:inkscape="http://www.inkscape.org/namespaces/inkscape"
   width="1024"
   height="1024"
   viewBox="0 0 270.93333 270.93333"
   version="1.1"
   id="svg1154"
   inkscape:version="0.92.3 (2405546, 2018-03-11)"
   sodipodi:docname="metronome.svg">
  <defs
     id="defs1148">
    <clipPath
       id="p7ff5b81e1d">
      <rect
         height="345.60001"
         width="446.39999"
         x="72"
         y="43.200001"
         id="rect5353" />
    </clipPath>
  </defs>
  <sodipodi:namedview
     id="base"
     pagecolor="#ffffff"
     bordercolor="#666666"
     borderopacity="1.0"
     inkscape:pageopacity="0.0"
     inkscape:pageshadow="2"
     inkscape:zoom="0.24748738"
     inkscape:cx="81.884467"
     inkscape:cy="427.53053"
     inkscape:document-units="px"
     inkscape:current-layer="layer1"
     showgrid="false"
     units="px"
     inkscape:window-width="1299"
     inkscape:window-height="713"
     inkscape:window-x="67"
     inkscape:window-y="27"
     inkscape:window-maximized="1" />
  <metadata
     id="metadata1151">
    <rdf:RDF>
      <cc:Work
         rdf:about="">
        <dc:format>image/svg+xml</dc:format>
        <dc:type
           rdf:resource="http://purl.org/dc/dcmitype/StillImage" />
        <dc:title />
      </cc:Work>
    </rdf:RDF>
  </metadata>
  <g
     inkscape:label="Layer 1"
     inkscape:groupmode="layer"
     id="layer1"
     transform="translate(0,-26.06668)">
    <path
       style="fill:#000000;fill-opacity:1;stroke:none;stroke-width:81.1823349;stroke-linecap:round;stroke-linejoin:round;stroke-miterlimit:4;stroke-dasharray:none;stroke-dashoffset:0;stroke-opacity:1;paint-order:markers fill stroke"
       d="M 349.06641 68.251953 C 290.2809 68.251953 249.96716 116.00317 242.95117 174.36914 L 161.76758 849.63281 C 154.75349 907.99787 209.09732 955.74805 267.88281 955.74805 L 745.70117 955.74805 C 804.4876 955.74805 858.83532 907.99787 851.81836 849.63281 L 789.69141 332.86523 L 764.96094 387.98242 L 814.47656 770.3125 C 814.47656 821.31983 779.50737 862.39648 728.5 862.39648 L 576.32227 862.39648 A 69.961834 69.961834 0 0 0 545.02148 811.01367 L 861.25977 114.81641 A 16.626662 16.626662 0 0 0 846.4082 91.105469 A 16.626662 16.626662 0 0 0 830.98633 101.06445 L 513.51172 799.99219 A 69.961834 69.961834 0 0 0 471.83008 808.96289 A 69.961834 69.961834 0 0 0 437.22461 862.39648 L 289.56641 862.39648 C 238.55907 862.39648 203.5889 821.31983 203.58984 770.3125 L 278.66602 190.62109 C 278.66696 139.61374 319.74068 98.539063 370.74805 98.539062 L 647.35547 98.539062 C 698.3628 98.539062 739.40134 139.61374 739.40039 190.62109 L 745.0293 234.09375 L 770.88867 176.46484 L 770.63477 174.36914 C 763.62079 116.00317 723.30502 68.251953 664.51953 68.251953 L 349.06641 68.251953 z "
       transform="matrix(0.26458333,0,0,0.26458333,0,26.06668)"
       id="rect1017" />
  </g>
</svg>
