<?xml version="1.0" encoding="UTF-8" standalone="no"?>
<!-- Created with Inkscape (http://www.inkscape.org/) -->

<svg
   xmlns:dc="http://purl.org/dc/elements/1.1/"
   xmlns:cc="http://creativecommons.org/ns#"
   xmlns:rdf="http://www.w3.org/1999/02/22-rdf-syntax-ns#"
   xmlns:svg="http://www.w3.org/2000/svg"
   xmlns="http://www.w3.org/2000/svg"
   xmlns:sodipodi="http://sodipodi.sourceforge.net/DTD/sodipodi-0.dtd"
   xmlns:inkscape="http://www.inkscape.org/namespaces/inkscape"
   width="1024"
   height="1024"
   viewBox="0 0 270.93333 270.93333"
   version="1.1"
   id="svg1154"
   inkscape:version="0.92.3 (2405546, 2018-03-11)"
   sodipodi:docname="osc_tri.svg">
  <defs
     id="defs1148">
    <clipPath
       id="p7ff5b81e1d">
      <rect
         height="345.60001"
         width="446.39999"
         x="72"
         y="43.200001"
         id="rect5353" />
    </clipPath>
  </defs>
  <sodipodi:namedview
     id="base"
     pagecolor="#ffffff"
     bordercolor="#666666"
     borderopacity="1.0"
     inkscape:pageopacity="0.0"
     inkscape:pageshadow="2"
     inkscape:zoom="0.49497476"
     inkscape:cx="509.80573"
     inkscape:cy="401.57001"
     inkscape:document-units="px"
     inkscape:current-layer="layer1"
     showgrid="false"
     units="px"
     inkscape:window-width="1299"
     inkscape:window-height="713"
     inkscape:window-x="67"
     inkscape:window-y="27"
     inkscape:window-maximized="1" />
  <metadata
     id="metadata1151">
    <rdf:RDF>
      <cc:Work
         rdf:about="">
        <dc:format>image/svg+xml</dc:format>
        <dc:type
           rdf:resource="http://purl.org/dc/dcmitype/StillImage" />
        <dc:title />
      </cc:Work>
    </rdf:RDF>
  </metadata>
  <g
     inkscape:label="Layer 1"
     inkscape:groupmode="layer"
     id="layer1"
     transform="translate(0,-26.06668)">
    <path
       style="color:#000000;font-style:normal;font-variant:normal;font-weight:normal;font-stretch:normal;font-size:medium;line-height:normal;font-family:sans-serif;font-variant-ligatures:normal;font-variant-position:normal;font-variant-caps:normal;font-variant-numeric:normal;font-variant-alternates:normal;font-feature-settings:normal;text-indent:0;text-align:start;text-decoration:none;text-decoration-line:none;text-decoration-style:solid;text-decoration-color:#000000;letter-spacing:normal;word-spacing:normal;text-transform:none;writing-mode:lr-tb;direction:ltr;text-orientation:mixed;dominant-baseline:auto;baseline-shift:baseline;text-anchor:start;white-space:normal;shape-padding:0;clip-rule:nonzero;display:inline;overflow:visible;visibility:visible;opacity:1;isolation:auto;mix-blend-mode:normal;color-interpolation:sRGB;color-interpolation-filters:linearRGB;solid-color:#000000;solid-opacity:1;vector-effect:none;fill:#000000;fill-opacity:1;fill-rule:nonzero;stroke:none;stroke-width:31.99999809;stroke-linecap:round;stroke-linejoin:miter;stroke-miterlimit:4;stroke-dasharray:none;stroke-dashoffset:0;stroke-opacity:1;color-rendering:auto;image-rendering:auto;shape-rendering:auto;text-rendering:auto;enable-background:accumulate"
       d="M 111.99805 192.00195 L 111.99805 831.99609 L 175.99805 831.99609 L 175.99805 784 L 912.00391 784 L 912.00391 736.00195 L 175.99805 736.00195 L 175.99805 516 L 309.45898 516 L 222.2168 640.34961 A 16.001599 16.001599 0 1 0 248.41602 658.72266 L 348.54883 516 L 528.76172 516 L 627.48242 656.70703 A 16.001599 16.001599 0 0 0 640.85938 665.66797 A 16.001599 16.001599 0 0 0 641.2793 665.69141 A 16.001599 16.001599 0 0 0 642.11328 665.71484 A 16.001599 16.001599 0 0 0 656.54492 656.64844 L 755.22656 516 L 912.00391 516 L 912.00391 492.00195 L 772.06445 492.00195 L 858.43359 368.90234 A 16.001649 16.001649 0 1 0 832.23438 350.52148 L 732.9707 492.00195 L 551.00977 492.00195 L 453.16016 352.5293 A 16.001599 16.001599 0 0 0 439.69531 343.56836 A 16.001599 16.001599 0 0 0 439.67969 343.56836 A 16.001599 16.001599 0 0 0 438.72852 343.52344 A 16.001599 16.001599 0 0 0 438.44727 343.53711 A 16.001599 16.001599 0 0 0 424.11914 352.57227 L 326.29688 492.00195 L 175.99805 492.00195 L 175.99805 288.00391 L 912.00391 288.00391 L 912.00391 239.99805 L 175.99805 239.99805 L 175.99805 192.00195 L 111.99805 192.00195 z M 438.6543 387.57031 L 511.92383 492.00195 L 365.38672 492.00195 L 438.6543 387.57031 z M 567.8457 516 L 716.13477 516 L 641.98828 621.68164 L 567.8457 516 z "
       transform="matrix(0.26458333,0,0,0.26458333,0,26.06668)"
       id="path4739" />
  </g>
</svg>
