<?xml version="1.0" encoding="UTF-8" standalone="no"?>
<!-- Created with Inkscape (http://www.inkscape.org/) -->

<svg
   xmlns:dc="http://purl.org/dc/elements/1.1/"
   xmlns:cc="http://creativecommons.org/ns#"
   xmlns:rdf="http://www.w3.org/1999/02/22-rdf-syntax-ns#"
   xmlns:svg="http://www.w3.org/2000/svg"
   xmlns="http://www.w3.org/2000/svg"
   xmlns:sodipodi="http://sodipodi.sourceforge.net/DTD/sodipodi-0.dtd"
   xmlns:inkscape="http://www.inkscape.org/namespaces/inkscape"
   width="1024"
   height="1024"
   viewBox="0 0 270.93333 270.93333"
   version="1.1"
   id="svg1154"
   inkscape:version="0.92.3 (2405546, 2018-03-11)"
   sodipodi:docname="osc_sine.svg">
  <defs
     id="defs1148">
    <clipPath
       id="p7ff5b81e1d">
      <rect
         height="345.60001"
         width="446.39999"
         x="72"
         y="43.200001"
         id="rect5353" />
    </clipPath>
  </defs>
  <sodipodi:namedview
     id="base"
     pagecolor="#ffffff"
     bordercolor="#666666"
     borderopacity="1.0"
     inkscape:pageopacity="0.0"
     inkscape:pageshadow="2"
     inkscape:zoom="0.35000001"
     inkscape:cx="48.483746"
     inkscape:cy="277.98427"
     inkscape:document-units="px"
     inkscape:current-layer="layer1"
     showgrid="false"
     units="px"
     inkscape:window-width="1299"
     inkscape:window-height="713"
     inkscape:window-x="67"
     inkscape:window-y="27"
     inkscape:window-maximized="1" />
  <metadata
     id="metadata1151">
    <rdf:RDF>
      <cc:Work
         rdf:about="">
        <dc:format>image/svg+xml</dc:format>
        <dc:type
           rdf:resource="http://purl.org/dc/dcmitype/StillImage" />
        <dc:title />
      </cc:Work>
    </rdf:RDF>
  </metadata>
  <g
     inkscape:label="Layer 1"
     inkscape:groupmode="layer"
     id="layer1"
     transform="translate(0,-26.06668)">
    <path
       style="color:#000000;font-style:normal;font-variant:normal;font-weight:normal;font-stretch:normal;font-size:medium;line-height:normal;font-family:sans-serif;font-variant-ligatures:normal;font-variant-position:normal;font-variant-caps:normal;font-variant-numeric:normal;font-variant-alternates:normal;font-feature-settings:normal;text-indent:0;text-align:start;text-decoration:none;text-decoration-line:none;text-decoration-style:solid;text-decoration-color:#000000;letter-spacing:normal;word-spacing:normal;text-transform:none;writing-mode:lr-tb;direction:ltr;text-orientation:mixed;dominant-baseline:auto;baseline-shift:baseline;text-anchor:start;white-space:normal;shape-padding:0;clip-rule:nonzero;display:inline;overflow:visible;visibility:visible;opacity:1;isolation:auto;mix-blend-mode:normal;color-interpolation:sRGB;color-interpolation-filters:linearRGB;solid-color:#000000;solid-opacity:1;vector-effect:none;fill:#000000;fill-opacity:1;fill-rule:nonzero;stroke:none;stroke-width:31.99999809;stroke-linecap:round;stroke-linejoin:miter;stroke-miterlimit:4;stroke-dasharray:none;stroke-dashoffset:0;stroke-opacity:1;paint-order:markers fill stroke;color-rendering:auto;image-rendering:auto;shape-rendering:auto;text-rendering:auto;enable-background:accumulate"
       d="m 111.99805,192.00195 v 639.99414 h 64 V 784 H 912.00391 V 736.00195 H 175.99805 V 516 h 33.48437 c 1.8251,68.23443 32.23638,131.2179 82.72266,166.66797 v 0.008 c 52.09029,36.56935 118.30669,36.56501 170.39648,-0.008 C 513.09088,647.21907 543.49498,584.23295 545.32422,516 H 912.00391 V 492.00195 H 848.8418 C 844.31641,427.92348 814.47065,369.85442 766.64648,336.27344 l -0.0664,-0.043 -0.0664,-0.0527 c -24.33063,-16.70819 -53.21862,-25.64548 -82.81055,-25.96289 -29.59188,-0.31748 -59.88622,7.98654 -87.02539,25.77149 l -0.21289,0.13867 -0.21484,0.14844 c -47.7797,33.53905 -77.57003,91.74776 -82.18359,155.72851 H 175.99805 V 288.00391 H 912.00391 V 239.99805 H 175.99805 v -47.9961 z m 571.51562,150.13867 c 23.27311,0.27988 45.83221,7.3701 64.80274,20.375 38.05559,26.75524 63.93054,75.01595 68.44336,129.48633 H 546.1543 c 4.60816,-54.3065 30.43433,-102.68799 68.27734,-129.36718 21.82239,-14.24234 45.80892,-20.77402 69.08203,-20.49415 z M 241.50781,516 h 271.79688 c -1.85556,58.80239 -28.60857,112.0608 -69.0918,140.48438 -41.97264,29.46931 -91.64455,29.46776 -133.61914,0 C 270.111,628.05847 243.35917,574.80072 241.50781,516 Z"
       transform="matrix(0.26458333,0,0,0.26458333,0,26.06668)"
       id="path4747"
       inkscape:connector-curvature="0"
       sodipodi:nodetypes="cccccccccccccccccccccccccccccccsccccsccscc" />
  </g>
</svg>
