<?xml version="1.0" encoding="UTF-8" standalone="no"?>
<!-- Created with Inkscape (http://www.inkscape.org/) -->

<svg
   xmlns:dc="http://purl.org/dc/elements/1.1/"
   xmlns:cc="http://creativecommons.org/ns#"
   xmlns:rdf="http://www.w3.org/1999/02/22-rdf-syntax-ns#"
   xmlns:svg="http://www.w3.org/2000/svg"
   xmlns="http://www.w3.org/2000/svg"
   xmlns:sodipodi="http://sodipodi.sourceforge.net/DTD/sodipodi-0.dtd"
   xmlns:inkscape="http://www.inkscape.org/namespaces/inkscape"
   width="1024"
   height="1024"
   viewBox="0 0 270.93333 270.93333"
   version="1.1"
   id="svg1154"
   inkscape:version="0.92.3 (2405546, 2018-03-11)"
   sodipodi:docname="osc_square.svg">
  <defs
     id="defs1148">
    <clipPath
       id="p7ff5b81e1d">
      <rect
         height="345.60001"
         width="446.39999"
         x="72"
         y="43.200001"
         id="rect5353" />
    </clipPath>
  </defs>
  <sodipodi:namedview
     id="base"
     pagecolor="#ffffff"
     bordercolor="#666666"
     borderopacity="1.0"
     inkscape:pageopacity="0.0"
     inkscape:pageshadow="2"
     inkscape:zoom="0.49497476"
     inkscape:cx="500.60051"
     inkscape:cy="361.40179"
     inkscape:document-units="px"
     inkscape:current-layer="layer1"
     showgrid="false"
     units="px"
     inkscape:window-width="1299"
     inkscape:window-height="713"
     inkscape:window-x="67"
     inkscape:window-y="27"
     inkscape:window-maximized="1" />
  <metadata
     id="metadata1151">
    <rdf:RDF>
      <cc:Work
         rdf:about="">
        <dc:format>image/svg+xml</dc:format>
        <dc:type
           rdf:resource="http://purl.org/dc/dcmitype/StillImage" />
        <dc:title />
      </cc:Work>
    </rdf:RDF>
  </metadata>
  <g
     inkscape:label="Layer 1"
     inkscape:groupmode="layer"
     id="layer1"
     transform="translate(0,-26.06668)">
    <path
       style="color:#000000;font-style:normal;font-variant:normal;font-weight:normal;font-stretch:normal;font-size:medium;line-height:normal;font-family:sans-serif;font-variant-ligatures:normal;font-variant-position:normal;font-variant-caps:normal;font-variant-numeric:normal;font-variant-alternates:normal;font-feature-settings:normal;text-indent:0;text-align:start;text-decoration:none;text-decoration-line:none;text-decoration-style:solid;text-decoration-color:#000000;letter-spacing:normal;word-spacing:normal;text-transform:none;writing-mode:lr-tb;direction:ltr;text-orientation:mixed;dominant-baseline:auto;baseline-shift:baseline;text-anchor:start;white-space:normal;shape-padding:0;clip-rule:nonzero;display:inline;overflow:visible;visibility:visible;opacity:1;isolation:auto;mix-blend-mode:normal;color-interpolation:sRGB;color-interpolation-filters:linearRGB;solid-color:#000000;solid-opacity:1;vector-effect:none;fill:#000000;fill-opacity:1;fill-rule:nonzero;stroke:none;stroke-width:31.99999809;stroke-linecap:round;stroke-linejoin:round;stroke-miterlimit:4;stroke-dasharray:none;stroke-dashoffset:0;stroke-opacity:1;color-rendering:auto;image-rendering:auto;shape-rendering:auto;text-rendering:auto;enable-background:accumulate"
       d="M 111.99805 192.00195 L 111.99805 831.99609 L 175.99805 831.99609 L 175.99805 784 L 912.00391 784 L 912.00391 736.00195 L 175.99805 736.00195 L 175.99805 516 L 212.45117 516 L 212.45117 664.24219 A 16.001599 16.001599 0 1 0 244.45117 664.24219 L 244.45117 516 L 330.25195 516 L 330.25195 654.07812 A 16.001599 16.001599 0 0 0 334.64258 667.86133 A 16.001599 16.001599 0 0 0 335.05664 668.29688 A 16.001599 16.001599 0 0 0 348.81641 672.65234 L 477.1582 672.65234 A 16.001599 16.001599 0 0 0 491.08008 668.18555 A 16.001599 16.001599 0 0 0 491.4043 667.875 A 16.001599 16.001599 0 0 0 491.42773 667.85352 A 16.001599 16.001599 0 0 0 491.47266 667.80078 A 16.001599 16.001599 0 0 0 495.7832 654.11523 L 495.7832 516 L 624.85547 516 L 624.85547 654.0332 A 16.001599 16.001599 0 0 0 629.36523 668 A 16.001599 16.001599 0 0 0 629.63867 668.28125 A 16.001599 16.001599 0 0 0 629.69727 668.33203 A 16.001599 16.001599 0 0 0 643.41406 672.65039 L 833.23047 672.65039 A 16.001599 16.001599 0 0 0 847.14648 668.18555 A 16.001599 16.001599 0 0 0 847.4707 667.875 A 16.001599 16.001599 0 0 0 847.49414 667.85156 A 16.001599 16.001599 0 0 0 847.53711 667.80078 A 16.001599 16.001599 0 0 0 851.84766 654.0918 L 851.84766 516 L 912.00391 516 L 912.00391 492.00195 L 851.84766 492.00195 L 851.84766 360.84766 A 16.001599 16.001599 0 0 0 835.60938 344.62109 L 835.60742 344.62305 A 16.001599 16.001599 0 0 0 819.84766 360.84766 L 819.84766 492.00195 L 656.85547 492.00195 L 656.85547 368.02344 A 16.001599 16.001599 0 0 0 652.38867 354.10156 A 16.001599 16.001599 0 0 0 652.08008 353.77539 A 16.001599 16.001599 0 0 0 652.05664 353.75391 A 16.001599 16.001599 0 0 0 652.00586 353.70898 A 16.001599 16.001599 0 0 0 638.31836 349.39844 L 482.35352 349.39844 A 16.001599 16.001599 0 0 0 468.57227 353.79102 A 16.001599 16.001599 0 0 0 468.13672 354.20312 A 16.001599 16.001599 0 0 0 463.78125 367.98633 L 463.78125 492.00195 L 362.25195 492.00195 L 362.25195 368.02344 A 16.001599 16.001599 0 0 0 357.78516 354.09961 A 16.001599 16.001599 0 0 0 357.47461 353.77539 A 16.001599 16.001599 0 0 0 357.45312 353.75391 A 16.001599 16.001599 0 0 0 357.40234 353.70898 A 16.001599 16.001599 0 0 0 343.71484 349.39844 L 231.02344 349.39844 A 16.001599 16.001599 0 0 0 217.24219 353.79102 A 16.001599 16.001599 0 0 0 216.80664 354.20312 A 16.001599 16.001599 0 0 0 212.45117 367.96289 L 212.45117 492.00195 L 175.99805 492.00195 L 175.99805 288.00391 L 912.00391 288.00391 L 912.00391 239.99805 L 175.99805 239.99805 L 175.99805 192.00195 L 111.99805 192.00195 z M 244.45117 381.39844 L 330.25195 381.39844 L 330.25195 492.00195 L 244.45117 492.00195 L 244.45117 381.39844 z M 495.7832 381.39844 L 624.85547 381.39844 L 624.85547 492.00195 L 495.7832 492.00195 L 495.7832 381.39844 z M 362.25195 516 L 463.78125 516 L 463.78125 640.65039 L 362.25195 640.65039 L 362.25195 516 z M 656.85547 516 L 819.84766 516 L 819.84766 640.65039 L 656.85547 640.65039 L 656.85547 516 z "
       transform="matrix(0.26458333,0,0,0.26458333,0,26.06668)"
       id="path4763" />
  </g>
</svg>
