<?xml version="1.0" encoding="UTF-8" standalone="no"?>
<!-- Created with Inkscape (http://www.inkscape.org/) -->

<svg
   xmlns:dc="http://purl.org/dc/elements/1.1/"
   xmlns:cc="http://creativecommons.org/ns#"
   xmlns:rdf="http://www.w3.org/1999/02/22-rdf-syntax-ns#"
   xmlns:svg="http://www.w3.org/2000/svg"
   xmlns="http://www.w3.org/2000/svg"
   xmlns:sodipodi="http://sodipodi.sourceforge.net/DTD/sodipodi-0.dtd"
   xmlns:inkscape="http://www.inkscape.org/namespaces/inkscape"
   width="1024"
   height="1024"
   viewBox="0 0 270.93333 270.93333"
   version="1.1"
   id="svg1154"
   inkscape:version="0.92.3 (2405546, 2018-03-11)"
   sodipodi:docname="osc_square_short.svg">
  <defs
     id="defs1148">
    <clipPath
       id="p7ff5b81e1d">
      <rect
         height="345.60001"
         width="446.39999"
         x="72"
         y="43.200001"
         id="rect5353" />
    </clipPath>
  </defs>
  <sodipodi:namedview
     id="base"
     pagecolor="#ffffff"
     bordercolor="#666666"
     borderopacity="1.0"
     inkscape:pageopacity="0.0"
     inkscape:pageshadow="2"
     inkscape:zoom="0.49497476"
     inkscape:cx="510.75058"
     inkscape:cy="416.86077"
     inkscape:document-units="px"
     inkscape:current-layer="layer1"
     showgrid="false"
     units="px"
     inkscape:window-width="1299"
     inkscape:window-height="713"
     inkscape:window-x="67"
     inkscape:window-y="27"
     inkscape:window-maximized="1" />
  <metadata
     id="metadata1151">
    <rdf:RDF>
      <cc:Work
         rdf:about="">
        <dc:format>image/svg+xml</dc:format>
        <dc:type
           rdf:resource="http://purl.org/dc/dcmitype/StillImage" />
        <dc:title />
      </cc:Work>
    </rdf:RDF>
  </metadata>
  <g
     inkscape:label="Layer 1"
     inkscape:groupmode="layer"
     id="layer1"
     transform="translate(0,-26.06668)">
    <path
       style="color:#000000;font-style:normal;font-variant:normal;font-weight:normal;font-stretch:normal;font-size:medium;line-height:normal;font-family:sans-serif;font-variant-ligatures:normal;font-variant-position:normal;font-variant-caps:normal;font-variant-numeric:normal;font-variant-alternates:normal;font-feature-settings:normal;text-indent:0;text-align:start;text-decoration:none;text-decoration-line:none;text-decoration-style:solid;text-decoration-color:#000000;letter-spacing:normal;word-spacing:normal;text-transform:none;writing-mode:lr-tb;direction:ltr;text-orientation:mixed;dominant-baseline:auto;baseline-shift:baseline;text-anchor:start;white-space:normal;shape-padding:0;clip-rule:nonzero;display:inline;overflow:visible;visibility:visible;opacity:1;isolation:auto;mix-blend-mode:normal;color-interpolation:sRGB;color-interpolation-filters:linearRGB;solid-color:#000000;solid-opacity:1;vector-effect:none;fill:#000000;fill-opacity:1;fill-rule:nonzero;stroke:none;stroke-width:31.99009323;stroke-linecap:round;stroke-linejoin:round;stroke-miterlimit:4;stroke-dasharray:none;stroke-dashoffset:0;stroke-opacity:1;color-rendering:auto;image-rendering:auto;shape-rendering:auto;text-rendering:auto;enable-background:accumulate"
       d="M 111.99805 192.00195 L 111.99805 831.99609 L 175.99805 831.99609 L 175.99805 784 L 912.00391 784 L 912.00391 736.00195 L 175.99805 736.00195 L 175.99805 516 L 500.86914 516 L 500.86914 647.78125 L 228.44727 647.78125 A 15.996646 15.996646 0 1 0 228.44727 679.77539 L 514.24414 679.77539 A 15.996646 15.996646 0 0 0 528.21094 675.26562 A 15.996646 15.996646 0 0 0 528.49219 674.99219 A 15.996646 15.996646 0 0 0 528.50586 674.97656 A 15.996646 15.996646 0 0 0 528.54492 674.93945 A 15.996646 15.996646 0 0 0 532.86328 661.21484 L 532.86328 516 L 820.00391 516 L 820.00391 663.77734 A 15.996646 15.996646 0 1 0 851.99609 663.77734 L 851.99609 516 L 912.00391 516 L 912.00391 492.00195 L 851.99609 492.00195 L 851.99609 362.83984 A 15.996646 15.996646 0 0 0 847.53125 348.92383 A 15.996646 15.996646 0 0 0 847.2207 348.59961 A 15.996646 15.996646 0 0 0 847.19727 348.57812 A 15.996646 15.996646 0 0 0 847.14648 348.5332 A 15.996646 15.996646 0 0 0 833.41602 344.23047 L 519.47852 344.23047 A 15.996646 15.996646 0 0 0 516.62305 344 L 516.62109 344.00195 A 15.996646 15.996646 0 0 0 505.61523 348.65234 A 15.996646 15.996646 0 0 0 505.22461 349.0293 A 15.996646 15.996646 0 0 0 500.86914 362.78125 L 500.86914 492.00195 L 175.99805 492.00195 L 175.99805 288.00391 L 912.00391 288.00391 L 912.00391 239.99805 L 175.99805 239.99805 L 175.99805 192.00195 L 111.99805 192.00195 z M 532.86328 376.21484 L 820.00391 376.21484 L 820.00391 492.00195 L 532.86328 492.00195 L 532.86328 376.21484 z "
       transform="matrix(0.26458333,0,0,0.26458333,0,26.06668)"
       id="path4767" />
  </g>
</svg>
