<?xml version="1.0" encoding="UTF-8" standalone="no"?>
<!-- Created with Inkscape (http://www.inkscape.org/) -->

<svg
   xmlns:dc="http://purl.org/dc/elements/1.1/"
   xmlns:cc="http://creativecommons.org/ns#"
   xmlns:rdf="http://www.w3.org/1999/02/22-rdf-syntax-ns#"
   xmlns:svg="http://www.w3.org/2000/svg"
   xmlns="http://www.w3.org/2000/svg"
   xmlns:sodipodi="http://sodipodi.sourceforge.net/DTD/sodipodi-0.dtd"
   xmlns:inkscape="http://www.inkscape.org/namespaces/inkscape"
   width="1024"
   height="1024"
   viewBox="0 0 270.93333 270.93333"
   version="1.1"
   id="svg1154"
   inkscape:version="0.92.3 (2405546, 2018-03-11)"
   sodipodi:docname="speaker_mute.svg">
  <defs
     id="defs1148">
    <marker
       inkscape:isstock="true"
       style="overflow:visible"
       id="marker997"
       refX="0"
       refY="0"
       orient="auto"
       inkscape:stockid="DotS">
      <path
         transform="matrix(0.2,0,0,0.2,1.48,0.2)"
         style="fill:#ffffff;fill-opacity:1;fill-rule:evenodd;stroke:#000000;stroke-width:1.00000003pt;stroke-opacity:1"
         d="m -2.5,-1 c 0,2.76 -2.24,5 -5,5 -2.76,0 -5,-2.24 -5,-5 0,-2.76 2.24,-5 5,-5 2.76,0 5,2.24 5,5 z"
         id="path995"
         inkscape:connector-curvature="0" />
    </marker>
    <clipPath
       id="p7ff5b81e1d">
      <rect
         height="345.60001"
         width="446.39999"
         x="72"
         y="43.200001"
         id="rect5353" />
    </clipPath>
  </defs>
  <sodipodi:namedview
     id="base"
     pagecolor="#ffffff"
     bordercolor="#666666"
     borderopacity="1.0"
     inkscape:pageopacity="0.0"
     inkscape:pageshadow="2"
     inkscape:zoom="0.49497476"
     inkscape:cx="339.99979"
     inkscape:cy="497.84292"
     inkscape:document-units="px"
     inkscape:current-layer="layer1"
     showgrid="false"
     units="px"
     inkscape:window-width="1299"
     inkscape:window-height="713"
     inkscape:window-x="67"
     inkscape:window-y="27"
     inkscape:window-maximized="1" />
  <metadata
     id="metadata1151">
    <rdf:RDF>
      <cc:Work
         rdf:about="">
        <dc:format>image/svg+xml</dc:format>
        <dc:type
           rdf:resource="http://purl.org/dc/dcmitype/StillImage" />
        <dc:title />
      </cc:Work>
    </rdf:RDF>
  </metadata>
  <g
     inkscape:label="Layer 1"
     inkscape:groupmode="layer"
     id="layer1"
     transform="translate(0,-26.06668)">
    <path
       style="color:#000000;font-style:normal;font-variant:normal;font-weight:normal;font-stretch:normal;font-size:medium;line-height:normal;font-family:sans-serif;font-variant-ligatures:normal;font-variant-position:normal;font-variant-caps:normal;font-variant-numeric:normal;font-variant-alternates:normal;font-feature-settings:normal;text-indent:0;text-align:start;text-decoration:none;text-decoration-line:none;text-decoration-style:solid;text-decoration-color:#000000;letter-spacing:normal;word-spacing:normal;text-transform:none;writing-mode:lr-tb;direction:ltr;text-orientation:mixed;dominant-baseline:auto;baseline-shift:baseline;text-anchor:start;white-space:normal;shape-padding:0;clip-rule:nonzero;display:inline;overflow:visible;visibility:visible;opacity:1;isolation:auto;mix-blend-mode:normal;color-interpolation:sRGB;color-interpolation-filters:linearRGB;solid-color:#000000;solid-opacity:1;vector-effect:none;fill:#000000;fill-opacity:1;fill-rule:nonzero;stroke:none;stroke-width:35;stroke-linecap:butt;stroke-linejoin:round;stroke-miterlimit:4;stroke-dasharray:none;stroke-dashoffset:0;stroke-opacity:1;paint-order:markers fill stroke;color-rendering:auto;image-rendering:auto;shape-rendering:auto;text-rendering:auto;enable-background:accumulate"
       d="M 792.72656 84.447266 A 17.751774 17.751774 0 0 0 777.17188 93.697266 L 324.55273 896.07227 A 17.751774 17.751774 0 1 0 355.4668 913.51562 L 808.08789 111.14062 A 17.751774 17.751774 0 0 0 792.72656 84.447266 z M 652.6543 122.64258 A 17.501751 17.501751 0 0 0 642.94141 125.93359 L 475.4082 246.63477 A 17.501751 17.501751 0 0 0 468.14453 260.83008 L 468.14453 305.36523 L 374.54297 305.36523 A 17.501751 17.501751 0 0 0 357.04688 322.86719 L 357.04688 678.60156 A 17.501751 17.501751 0 0 0 374.54297 696.0957 L 420.42383 696.0957 L 440.16406 661.09961 L 392.04492 661.09961 L 392.04492 340.36328 L 468.14453 340.36328 L 468.14453 611.49805 L 503.14258 549.45703 L 503.14258 322.86719 L 503.14258 269.79297 L 635.66992 174.30664 L 635.66992 314.51953 L 670.66602 252.48047 L 670.66602 140.13672 A 17.501751 17.501751 0 0 0 652.6543 122.64258 z M 670.66602 384.7832 L 635.66992 446.82227 L 635.66992 839.91797 L 503.14258 744.42578 L 503.14258 681.75586 L 468.14453 743.79688 L 468.14453 753.38672 A 17.501751 17.501751 0 0 0 475.4082 767.58984 L 642.94141 888.2832 A 17.501751 17.501751 0 0 0 670.66602 874.08789 L 670.66602 384.7832 z "
       transform="matrix(0.26458333,0,0,0.26458333,0,26.06668)"
       id="path1433" />
  </g>
</svg>
