<?xml version="1.0" encoding="UTF-8" standalone="no"?>
<!-- Created with Inkscape (http://www.inkscape.org/) -->

<svg
   xmlns:dc="http://purl.org/dc/elements/1.1/"
   xmlns:cc="http://creativecommons.org/ns#"
   xmlns:rdf="http://www.w3.org/1999/02/22-rdf-syntax-ns#"
   xmlns:svg="http://www.w3.org/2000/svg"
   xmlns="http://www.w3.org/2000/svg"
   xmlns:sodipodi="http://sodipodi.sourceforge.net/DTD/sodipodi-0.dtd"
   xmlns:inkscape="http://www.inkscape.org/namespaces/inkscape"
   width="1024"
   height="1024"
   viewBox="0 0 270.93333 270.93333"
   version="1.1"
   id="svg1154"
   inkscape:version="0.92.3 (2405546, 2018-03-11)"
   sodipodi:docname="speaker_mute.svg">
  <defs
     id="defs1148">
    <marker
       inkscape:isstock="true"
       style="overflow:visible"
       id="marker997"
       refX="0"
       refY="0"
       orient="auto"
       inkscape:stockid="DotS">
      <path
         transform="matrix(0.2,0,0,0.2,1.48,0.2)"
         style="fill:#ffffff;fill-opacity:1;fill-rule:evenodd;stroke:#000000;stroke-width:1.00000003pt;stroke-opacity:1"
         d="m -2.5,-1 c 0,2.76 -2.24,5 -5,5 -2.76,0 -5,-2.24 -5,-5 0,-2.76 2.24,-5 5,-5 2.76,0 5,2.24 5,5 z"
         id="path995"
         inkscape:connector-curvature="0" />
    </marker>
    <clipPath
       id="p7ff5b81e1d">
      <rect
         height="345.60001"
         width="446.39999"
         x="72"
         y="43.200001"
         id="rect5353" />
    </clipPath>
  </defs>
  <sodipodi:namedview
     id="base"
     pagecolor="#ffffff"
     bordercolor="#666666"
     borderopacity="1.0"
     inkscape:pageopacity="0.0"
     inkscape:pageshadow="2"
     inkscape:zoom="0.49497476"
     inkscape:cx="715.77653"
     inkscape:cy="530.1678"
     inkscape:document-units="px"
     inkscape:current-layer="layer1"
     showgrid="false"
     units="px"
     inkscape:window-width="1299"
     inkscape:window-height="713"
     inkscape:window-x="67"
     inkscape:window-y="27"
     inkscape:window-maximized="1" />
  <metadata
     id="metadata1151">
    <rdf:RDF>
      <cc:Work
         rdf:about="">
        <dc:format>image/svg+xml</dc:format>
        <dc:type
           rdf:resource="http://purl.org/dc/dcmitype/StillImage" />
        <dc:title />
      </cc:Work>
    </rdf:RDF>
  </metadata>
  <g
     inkscape:label="Layer 1"
     inkscape:groupmode="layer"
     id="layer1"
     transform="translate(0,-26.06668)">
    <path
       style="color:#000000;font-style:normal;font-variant:normal;font-weight:normal;font-stretch:normal;font-size:medium;line-height:normal;font-family:sans-serif;font-variant-ligatures:normal;font-variant-position:normal;font-variant-caps:normal;font-variant-numeric:normal;font-variant-alternates:normal;font-feature-settings:normal;text-indent:0;text-align:start;text-decoration:none;text-decoration-line:none;text-decoration-style:solid;text-decoration-color:#000000;letter-spacing:normal;word-spacing:normal;text-transform:none;writing-mode:lr-tb;direction:ltr;text-orientation:mixed;dominant-baseline:auto;baseline-shift:baseline;text-anchor:start;white-space:normal;shape-padding:0;clip-rule:nonzero;display:inline;overflow:visible;visibility:visible;opacity:1;isolation:auto;mix-blend-mode:normal;color-interpolation:sRGB;color-interpolation-filters:linearRGB;solid-color:#000000;solid-opacity:1;vector-effect:none;fill:#000000;fill-opacity:1;fill-rule:nonzero;stroke:none;stroke-width:31.27150917;stroke-linecap:butt;stroke-linejoin:round;stroke-miterlimit:4;stroke-dasharray:none;stroke-dashoffset:0;stroke-opacity:1;paint-order:markers fill stroke;color-rendering:auto;image-rendering:auto;shape-rendering:auto;text-rendering:auto;enable-background:accumulate"
       d="M 788.45312 82.462891 A 20.104668 20.104668 0 0 0 770.90625 93.054688 L 332.27344 883.54492 A 20.105192 20.105192 0 1 0 367.43359 903.05469 L 806.06641 112.56445 A 20.104668 20.104668 0 0 0 788.45312 82.462891 z M 652.70703 124.50977 A 15.637318 15.637318 0 0 0 644.02539 127.44727 L 474.27148 249.75781 A 15.637318 15.637318 0 0 0 467.77539 262.43945 L 467.77539 309.66211 L 370.83008 309.66211 A 15.637318 15.637318 0 0 0 355.19531 325.29688 L 355.19531 685.76953 A 15.637318 15.637318 0 0 0 370.83008 701.4043 L 416.30859 701.4043 L 433.66016 670.13477 L 386.46484 670.13477 L 386.46484 340.93945 L 467.77539 340.93945 L 467.77539 608.6543 L 499.04492 552.30078 L 499.04492 325.29688 L 499.04492 270.44922 L 637.5293 170.67578 L 637.5293 302.72852 L 668.80664 246.36133 L 668.80664 140.13672 A 15.637318 15.637318 0 0 0 652.70703 124.50977 z M 668.80664 390.625 L 637.5293 446.99219 L 637.5293 853.32422 L 499.04492 753.54883 L 499.04492 696.5625 L 467.77539 752.91602 L 467.77539 761.55859 A 15.637318 15.637318 0 0 0 474.27148 774.24023 L 644.02539 896.55078 A 15.637318 15.637318 0 0 0 668.80664 883.86914 L 668.80664 390.625 z "
       transform="matrix(0.26458333,0,0,0.26458333,0,26.06668)"
       id="rect1251" />
  </g>
</svg>
