<?xml version="1.0" encoding="UTF-8" standalone="no"?>
<!-- Created with Inkscape (http://www.inkscape.org/) -->

<svg
   xmlns:dc="http://purl.org/dc/elements/1.1/"
   xmlns:cc="http://creativecommons.org/ns#"
   xmlns:rdf="http://www.w3.org/1999/02/22-rdf-syntax-ns#"
   xmlns:svg="http://www.w3.org/2000/svg"
   xmlns="http://www.w3.org/2000/svg"
   xmlns:sodipodi="http://sodipodi.sourceforge.net/DTD/sodipodi-0.dtd"
   xmlns:inkscape="http://www.inkscape.org/namespaces/inkscape"
   width="1024"
   height="1024"
   viewBox="0 0 270.93333 270.93333"
   version="1.1"
   id="svg1154"
   inkscape:version="0.92.3 (2405546, 2018-03-11)"
   sodipodi:docname="tuning_fork.svg">
  <defs
     id="defs1148">
    <marker
       inkscape:isstock="true"
       style="overflow:visible"
       id="marker900"
       refX="0"
       refY="0"
       orient="auto"
       inkscape:stockid="DotS">
      <path
         transform="matrix(0.2,0,0,0.2,1.48,0.2)"
         style="fill:#000000;fill-opacity:1;fill-rule:evenodd;stroke:#000000;stroke-width:1.00000003pt;stroke-opacity:1"
         d="m -2.5,-1 c 0,2.76 -2.24,5 -5,5 -2.76,0 -5,-2.24 -5,-5 0,-2.76 2.24,-5 5,-5 2.76,0 5,2.24 5,5 z"
         id="path898"
         inkscape:connector-curvature="0" />
    </marker>
    <marker
       inkscape:isstock="true"
       style="overflow:visible"
       id="marker997"
       refX="0"
       refY="0"
       orient="auto"
       inkscape:stockid="DotS">
      <path
         transform="matrix(0.2,0,0,0.2,1.48,0.2)"
         style="fill:#ffffff;fill-opacity:1;fill-rule:evenodd;stroke:#000000;stroke-width:1.00000003pt;stroke-opacity:1"
         d="m -2.5,-1 c 0,2.76 -2.24,5 -5,5 -2.76,0 -5,-2.24 -5,-5 0,-2.76 2.24,-5 5,-5 2.76,0 5,2.24 5,5 z"
         id="path995"
         inkscape:connector-curvature="0" />
    </marker>
    <clipPath
       id="p7ff5b81e1d">
      <rect
         height="345.60001"
         width="446.39999"
         x="72"
         y="43.200001"
         id="rect5353" />
    </clipPath>
  </defs>
  <sodipodi:namedview
     id="base"
     pagecolor="#ffffff"
     bordercolor="#666666"
     borderopacity="1.0"
     inkscape:pageopacity="0.0"
     inkscape:pageshadow="2"
     inkscape:zoom="0.35000001"
     inkscape:cx="-39.561944"
     inkscape:cy="272.36934"
     inkscape:document-units="px"
     inkscape:current-layer="layer1"
     showgrid="false"
     units="px"
     inkscape:window-width="1299"
     inkscape:window-height="713"
     inkscape:window-x="67"
     inkscape:window-y="27"
     inkscape:window-maximized="1" />
  <metadata
     id="metadata1151">
    <rdf:RDF>
      <cc:Work
         rdf:about="">
        <dc:format>image/svg+xml</dc:format>
        <dc:type
           rdf:resource="http://purl.org/dc/dcmitype/StillImage" />
        <dc:title />
      </cc:Work>
    </rdf:RDF>
  </metadata>
  <g
     inkscape:label="Layer 1"
     inkscape:groupmode="layer"
     id="layer1"
     transform="translate(0,-26.06668)">
    <path
       style="color:#000000;font-style:normal;font-variant:normal;font-weight:normal;font-stretch:normal;font-size:medium;line-height:normal;font-family:sans-serif;font-variant-ligatures:normal;font-variant-position:normal;font-variant-caps:normal;font-variant-numeric:normal;font-variant-alternates:normal;font-feature-settings:normal;text-indent:0;text-align:start;text-decoration:none;text-decoration-line:none;text-decoration-style:solid;text-decoration-color:#000000;letter-spacing:normal;word-spacing:normal;text-transform:none;writing-mode:lr-tb;direction:ltr;text-orientation:mixed;dominant-baseline:auto;baseline-shift:baseline;text-anchor:start;white-space:normal;shape-padding:0;clip-rule:nonzero;display:inline;overflow:visible;visibility:visible;opacity:1;isolation:auto;mix-blend-mode:normal;color-interpolation:sRGB;color-interpolation-filters:linearRGB;solid-color:#000000;solid-opacity:1;vector-effect:none;fill:#000000;fill-opacity:1;fill-rule:nonzero;stroke:none;stroke-width:31.99999809;stroke-linecap:round;stroke-linejoin:miter;stroke-miterlimit:4;stroke-dasharray:none;stroke-dashoffset:0;stroke-opacity:1;color-rendering:auto;image-rendering:auto;shape-rendering:auto;text-rendering:auto;enable-background:accumulate"
       d="m 631.66797,314.2168 c 30.73663,11.18725 51.28125,40.52705 51.28125,73.23632 0,32.70925 -20.54462,62.04717 -51.28125,73.23438 l -10.93945,-30.07422 c 18.19853,-6.62373 30.2207,-23.79367 30.2207,-43.16016 0,-19.36652 -12.02217,-36.54618 -30.2207,-43.16992 z m -239.33594,0 10.93945,30.0664 c -18.19857,6.62374 -30.2207,23.8034 -30.2207,43.16992 0,19.36649 12.02213,36.53643 30.2207,43.16016 l -10.93945,30.07422 c -30.73667,-11.18721 -51.28125,-40.52513 -51.28125,-73.23438 0,-32.70927 20.54458,-62.04907 51.28125,-73.23632 z m 284.83789,-40.91797 c 47.93896,17.44836 79.93164,63.13868 79.93164,114.15429 0,51.01562 -31.99268,96.70401 -79.93164,114.15235 l -10.93945,-30.06641 c 35.40091,-12.88486 58.87695,-46.41308 58.87695,-84.08594 0,-37.67285 -23.47604,-71.20302 -58.87695,-84.08789 z m -330.34765,0 10.94726,30.0664 c -35.40089,12.88487 -58.87695,46.41504 -58.87695,84.08789 0,37.67286 23.47606,71.20108 58.87695,84.08594 l -10.94726,30.06641 c -47.93899,-17.44834 -79.92969,-63.13673 -79.92969,-114.15235 0,-51.01561 31.9907,-96.70593 79.92969,-114.15429 z m 373.80468,-46.77149 c 67.59916,24.60409 112.67774,88.98822 112.67774,160.92578 0,71.93753 -45.07858,136.31194 -112.67774,160.91602 l -10.94726,-30.06641 c 55.0611,-20.0406 91.62304,-72.25483 91.62304,-130.84961 0,-58.59481 -36.56194,-110.81096 -91.62304,-130.85156 z m -417.2539,0 10.93945,30.07422 c -55.06109,20.0406 -91.61523,72.25675 -91.61523,130.85156 0,58.59478 36.55414,110.80901 91.61523,130.84961 l -10.93945,30.06641 C 235.77387,523.76506 190.69531,459.39065 190.69531,387.45312 c 0,-71.93756 45.07856,-136.32169 112.67774,-160.92578 z M 473.25391,124.2207 a 16.001599,16.001599 0 0 1 16.24023,16.22657 v 478.00585 h 19.93164 a 16.001599,16.001599 0 0 1 2.33203,-0.22851 16.001599,16.001599 0 0 1 2.875,0.22851 h 19.87696 V 140.44727 a 16.001599,16.001599 0 1 1 32,0 v 491.41992 a 16.001599,16.001599 0 0 1 -4.35547,13.78125 16.001599,16.001599 0 0 1 -0.43555,0.41406 16.001599,16.001599 0 0 1 -13.78125,4.39258 h -19.93164 v 185.68554 c 9.55816,5.53671 15.99609,15.86962 15.99609,27.70313 0,17.664 -14.336,32 -32,32 -17.664,0 -32,-14.336 -32,-32 0,-11.83567 6.4428,-22.16913 16.00391,-27.70508 V 650.45508 H 476.0293 a 16.001599,16.001599 0 0 1 -13.67188,-4.29688 16.001599,16.001599 0 0 1 -0.0879,-0.0879 16.001599,16.001599 0 0 1 -0.30859,-0.31836 16.001599,16.001599 0 0 1 -4.4668,-13.92187 V 140.44727 a 16.001599,16.001599 0 0 1 15.75977,-16.22657 z"
       transform="matrix(0.26458333,0,0,0.26458333,0,26.06668)"
       id="path1821" />
  </g>
</svg>
