<?xml version="1.0" encoding="UTF-8" standalone="no"?>
<!-- Created with Inkscape (http://www.inkscape.org/) -->

<svg
   xmlns:dc="http://purl.org/dc/elements/1.1/"
   xmlns:cc="http://creativecommons.org/ns#"
   xmlns:rdf="http://www.w3.org/1999/02/22-rdf-syntax-ns#"
   xmlns:svg="http://www.w3.org/2000/svg"
   xmlns="http://www.w3.org/2000/svg"
   xmlns:sodipodi="http://sodipodi.sourceforge.net/DTD/sodipodi-0.dtd"
   xmlns:inkscape="http://www.inkscape.org/namespaces/inkscape"
   width="1024"
   height="1024"
   viewBox="0 0 270.93333 270.93333"
   version="1.1"
   id="svg1154"
   inkscape:version="0.92.3 (2405546, 2018-03-11)"
   sodipodi:docname="tuning_fork.svg">
  <defs
     id="defs1148">
    <marker
       inkscape:isstock="true"
       style="overflow:visible"
       id="marker997"
       refX="0"
       refY="0"
       orient="auto"
       inkscape:stockid="DotS">
      <path
         transform="matrix(0.2,0,0,0.2,1.48,0.2)"
         style="fill:#ffffff;fill-opacity:1;fill-rule:evenodd;stroke:#000000;stroke-width:1.00000003pt;stroke-opacity:1"
         d="m -2.5,-1 c 0,2.76 -2.24,5 -5,5 -2.76,0 -5,-2.24 -5,-5 0,-2.76 2.24,-5 5,-5 2.76,0 5,2.24 5,5 z"
         id="path995"
         inkscape:connector-curvature="0" />
    </marker>
    <clipPath
       id="p7ff5b81e1d">
      <rect
         height="345.60001"
         width="446.39999"
         x="72"
         y="43.200001"
         id="rect5353" />
    </clipPath>
  </defs>
  <sodipodi:namedview
     id="base"
     pagecolor="#ffffff"
     bordercolor="#666666"
     borderopacity="1.0"
     inkscape:pageopacity="0.0"
     inkscape:pageshadow="2"
     inkscape:zoom="0.49497476"
     inkscape:cx="407.08749"
     inkscape:cy="475.24117"
     inkscape:document-units="px"
     inkscape:current-layer="layer1"
     showgrid="false"
     units="px"
     inkscape:window-width="1299"
     inkscape:window-height="713"
     inkscape:window-x="67"
     inkscape:window-y="27"
     inkscape:window-maximized="1" />
  <metadata
     id="metadata1151">
    <rdf:RDF>
      <cc:Work
         rdf:about="">
        <dc:format>image/svg+xml</dc:format>
        <dc:type
           rdf:resource="http://purl.org/dc/dcmitype/StillImage" />
        <dc:title />
      </cc:Work>
    </rdf:RDF>
  </metadata>
  <g
     inkscape:label="Layer 1"
     inkscape:groupmode="layer"
     id="layer1"
     transform="translate(0,-26.06668)">
    <path
       style="color:#000000;font-style:normal;font-variant:normal;font-weight:normal;font-stretch:normal;font-size:medium;line-height:normal;font-family:sans-serif;font-variant-ligatures:normal;font-variant-position:normal;font-variant-caps:normal;font-variant-numeric:normal;font-variant-alternates:normal;font-feature-settings:normal;text-indent:0;text-align:start;text-decoration:none;text-decoration-line:none;text-decoration-style:solid;text-decoration-color:#000000;letter-spacing:normal;word-spacing:normal;text-transform:none;writing-mode:lr-tb;direction:ltr;text-orientation:mixed;dominant-baseline:auto;baseline-shift:baseline;text-anchor:start;white-space:normal;shape-padding:0;clip-rule:nonzero;display:inline;overflow:visible;visibility:visible;opacity:1;isolation:auto;mix-blend-mode:normal;color-interpolation:sRGB;color-interpolation-filters:linearRGB;solid-color:#000000;solid-opacity:1;vector-effect:none;fill:#000000;fill-opacity:1;fill-rule:nonzero;stroke:none;stroke-width:31.4521637;stroke-linecap:round;stroke-linejoin:miter;stroke-miterlimit:4;stroke-dasharray:none;stroke-dashoffset:0;stroke-opacity:1;color-rendering:auto;image-rendering:auto;shape-rendering:auto;text-rendering:auto;enable-background:accumulate"
       d="M 473.25391 124.50195 A 15.727573 15.727573 0 0 0 457.76562 140.45508 L 457.76562 631.88086 A 15.727573 15.727573 0 0 0 462.1875 645.58984 A 15.727573 15.727573 0 0 0 462.46094 645.87695 A 15.727573 15.727573 0 0 0 462.54297 645.95117 A 15.727573 15.727573 0 0 0 476.05078 650.17383 L 496.27734 650.17383 L 496.27734 836.62109 C 486.87919 842.06206 480.54688 852.21993 480.54688 863.85352 C 480.54688 881.21508 494.6384 895.30469 512 895.30469 C 529.3616 895.30469 543.45312 881.21508 543.45312 863.85352 C 543.45312 852.22088 537.12149 842.06435 527.72461 836.62305 L 527.72461 650.17383 L 547.94336 650.17383 A 15.727573 15.727573 0 0 0 561.57031 645.82617 A 15.727573 15.727573 0 0 0 561.95312 645.45703 A 15.727573 15.727573 0 0 0 566.23633 631.93359 L 566.23633 140.45508 A 15.727573 15.727573 0 1 0 534.78125 140.45508 L 534.78125 618.72656 L 514.55469 618.72656 A 15.727654 15.727654 0 0 0 511.76367 618.50586 A 15.727654 15.727654 0 0 0 509.48438 618.72656 L 489.2207 618.72656 L 489.2207 140.45508 A 15.727573 15.727573 0 0 0 473.25391 124.50195 z "
       transform="matrix(0.26458333,0,0,0.26458333,0,26.06668)"
       id="path909" />
  </g>
</svg>
